HIERARCHY
ROOT Hips
{
	OFFSET 0.000000 0.000000 0.000000
	CHANNELS 6 Xposition Yposition Zposition Zrotation Yrotation Xrotation 
	JOINT LHipJoint
	{
		OFFSET 0.000000 0.000000 0.000000
		CHANNELS 3 Zrotation Yrotation Xrotation
		JOINT LeftUpLeg
		{
			OFFSET 1.363060 -1.794630 0.839290
			CHANNELS 3 Zrotation Yrotation Xrotation
			JOINT LeftLeg
			{
				OFFSET 2.448110 -6.726130 0.000000
				CHANNELS 3 Zrotation Yrotation Xrotation
				JOINT LeftFoot
				{
					OFFSET 2.562200 -7.039590 0.000000
					CHANNELS 3 Zrotation Yrotation Xrotation
					JOINT LeftToeBase
					{
						OFFSET 0.157640 -0.433110 2.322550
						CHANNELS 3 Zrotation Yrotation Xrotation
						End Site
						{
							OFFSET 0.000000 0.000000 0.000000
						}
					}
				}
			}
		}
	}
	JOINT RHipJoint
	{
		OFFSET 0.000000 0.000000 0.000000
		CHANNELS 3 Zrotation Yrotation Xrotation
		JOINT RightUpLeg
		{
			OFFSET -1.305520 -1.794630 0.839290
			CHANNELS 3 Zrotation Yrotation Xrotation
			JOINT RightLeg
			{
				OFFSET -2.542530 -6.985550 0.000000
				CHANNELS 3 Zrotation Yrotation Xrotation
				JOINT RightFoot
				{
					OFFSET -2.568260 -7.056230 0.000000
					CHANNELS 3 Zrotation Yrotation Xrotation
					JOINT RightToeBase
					{
						OFFSET -0.164730 -0.452590 2.363150
						CHANNELS 3 Zrotation Yrotation Xrotation
						End Site
						{
							OFFSET 0.000000 0.000000 0.000000
						}
					}
				}
			}
		}
	}
	JOINT LowerBack
	{
		OFFSET 0.000000 0.000000 0.000000
		CHANNELS 3 Zrotation Yrotation Xrotation
		JOINT Spine
		{
			OFFSET 0.028270 2.035590 -0.193380
			CHANNELS 3 Zrotation Yrotation Xrotation
			JOINT Spine1
			{
				OFFSET 0.056720 2.048850 -0.042750
				CHANNELS 3 Zrotation Yrotation Xrotation
				JOINT Neck
				{
					OFFSET 0.000000 0.000000 0.000000
					CHANNELS 3 Zrotation Yrotation Xrotation
					JOINT Neck1
					{
						OFFSET -0.054170 1.746240 0.172020
						CHANNELS 3 Zrotation Yrotation Xrotation
						JOINT Head
						{
							OFFSET 0.104070 1.761360 -0.123970
							CHANNELS 3 Zrotation Yrotation Xrotation
							End Site
							{
								OFFSET 0.000000 0.000000 0.000000
							}
						}
					}
				}
				JOINT LeftShoulder
				{
					OFFSET 0.000000 0.000000 0.000000
					CHANNELS 3 Zrotation Yrotation Xrotation
					JOINT LeftArm
					{
						OFFSET 3.362410 1.200890 -0.311210
						CHANNELS 3 Zrotation Yrotation Xrotation
						JOINT LeftForeArm
						{
							OFFSET 4.983000 -0.000000 -0.000000
							CHANNELS 3 Zrotation Yrotation Xrotation
							JOINT LeftHand
							{
								OFFSET 3.483560 -0.000000 -0.000000
								CHANNELS 3 Zrotation Yrotation Xrotation
								JOINT LeftFingerBase
								{
									OFFSET 0.000000 0.000000 0.000000
									CHANNELS 3 Zrotation Yrotation Xrotation
									JOINT LeftHandIndex1
									{
										OFFSET 0.715260 -0.000000 -0.000000
										CHANNELS 3 Zrotation Yrotation Xrotation
										End Site
										{
											OFFSET 0.000000 0.000000 0.000000
										}
									}
								}
								JOINT LThumb
								{
									OFFSET 0.000000 0.000000 0.000000
									CHANNELS 3 Zrotation Yrotation Xrotation
									End Site
									{
										OFFSET 0.000000 0.000000 0.000000
									}
								}
							}
						}
					}
				}
				JOINT RightShoulder
				{
					OFFSET 0.000000 0.000000 0.000000
					CHANNELS 3 Zrotation Yrotation Xrotation
					JOINT RightArm
					{
						OFFSET -3.136600 1.374050 -0.404650
						CHANNELS 3 Zrotation Yrotation Xrotation
						JOINT RightForeArm
						{
							OFFSET -5.241900 -0.000000 -0.000000
							CHANNELS 3 Zrotation Yrotation Xrotation
							JOINT RightHand
							{
								OFFSET -3.444170 -0.000000 -0.000000
								CHANNELS 3 Zrotation Yrotation Xrotation
								JOINT RightFingerBase
								{
									OFFSET 0.000000 0.000000 0.000000
									CHANNELS 3 Zrotation Yrotation Xrotation
									JOINT RightHandIndex1
									{
										OFFSET -0.622530 -0.000000 -0.000000
										CHANNELS 3 Zrotation Yrotation Xrotation
										End Site
										{
											OFFSET 0.000000 0.000000 0.000000
										}
									}
								}
								JOINT RThumb
								{
									OFFSET 0.000000 0.000000 0.000000
									CHANNELS 3 Zrotation Yrotation Xrotation
									End Site
									{
										OFFSET 0.000000 0.000000 0.000000
									}
								}
							}
						}
					}
				}
			}
		}
	}
}
MOTION
Frames: 6
Frame Time: 0.008333
20.135745 19.102790 35.310566 -2.827432 -3.388908 10.327460 -17.004615 2.936560 3.572343 4.690614 -1.173861 -27.397806 -6.146686 -22.813711 27.544610 -22.719064 44.581162 -5.837935 -0.065189 -1.993867 1.342669 13.017149 -2.429527 4.337445 -5.942891 4.152391 -30.611988 24.907676 23.042753 49.949020 32.450761 -42.007032 -33.938798 -0.196267 -0.703764 -4.321841 2.604886 -0.333526 5.813478 0.825472 -0.261506 -4.146357 -0.663895 -0.337340 -1.357458 -2.184722 -0.288075 -5.347330 8.577730 0.984502 32.955459 5.785173 3.883428 0.467807 -7.532191 -4.042194 0.948181 -57.456878 -0.992122 35.232684 0.716176 2.640673 -10.676692 2.132506 -4.023203 -10.854222 -0.618329 1.814127 -0.000000 0.000000 0.000000 0.000000 0.000000 0.000000 0.000000 9.046684 3.920292 3.114071 56.469944 -2.177844 32.480552 -0.305911 -1.598049 -8.148096 -2.530757 2.355783 -8.233014 0.928649 -1.044880 -0.000000 0.000000 0.000000 0.000000 0.000000 0.000000 0.000000
20.109731 19.098841 35.367858 -2.778166 -3.470776 10.503030 -16.921290 2.780059 3.561089 5.013803 -1.804560 -27.346935 -6.038697 -21.464845 27.455047 -22.613147 44.079299 -6.109329 -0.061833 -1.969010 1.342565 13.054646 -2.360101 4.251709 -6.153844 4.572364 -30.550354 21.751819 22.021191 46.392865 30.204179 -40.782517 -30.161164 -0.226168 -0.786073 -2.037468 2.504115 -0.232363 5.904985 0.814265 -0.153191 -4.142885 -0.733566 -0.230331 -1.407277 -2.120518 -0.213610 -5.288361 8.926973 1.242693 33.011314 6.033886 4.238041 0.447622 -7.451441 -4.036208 1.024277 -57.490330 -1.203060 35.204226 0.655022 2.751841 -10.621633 1.959603 -4.050889 -10.788001 -0.549787 1.829993 -0.000000 0.000000 0.000000 0.000000 0.000000 0.000000 0.000000 8.834678 3.941830 2.909405 56.602066 -3.301059 32.756320 -0.687137 -1.390711 -9.054102 -2.648029 2.356713 -9.158898 0.943262 -1.035988 -0.000000 0.000000 0.000000 0.000000 0.000000 0.000000 0.000000
20.083994 19.097794 35.423588 -2.698383 -3.706259 10.710636 -16.838277 2.555249 3.598341 5.521476 -2.722286 -27.124709 -7.138333 -22.131082 28.531134 -23.067322 45.711941 -8.066430 -0.056719 -1.894444 1.305832 13.034501 -2.196468 4.154486 -6.433180 5.073418 -30.515230 19.920689 21.947425 44.245451 31.120406 -39.865068 -28.004425 -0.278964 -1.018171 -4.011258 2.385796 -0.142413 5.980280 0.804363 -0.054772 -4.138009 -0.802866 -0.136224 -1.310405 -2.102620 -0.149590 -5.363705 9.165646 1.445534 33.141330 6.171847 4.522149 0.240543 -7.380482 -3.835469 1.014937 -57.678560 -1.529596 35.039380 0.627813 2.762236 -10.390835 1.865882 -4.016857 -10.550091 -0.520833 1.814235 -0.000000 0.000000 0.000000 0.000000 0.000000 0.000000 0.000000 8.678530 3.765045 3.036225 56.641564 -3.548568 32.904788 -0.763100 -1.536817 -9.699917 -2.645526 2.158941 -9.797175 0.931171 -0.971384 -0.000000 0.000000 0.000000 0.000000 0.000000 0.000000 0.000000
20.057820 19.084721 35.471746 -2.674573 -3.560009 10.938516 -16.702135 2.324923 3.526189 5.796672 -3.389926 -27.281545 -6.905457 -20.602362 28.655565 -23.747725 44.749105 -8.808485 -0.120718 -2.089222 1.025287 13.032924 -2.046145 4.098767 -6.553219 5.179597 -30.624748 17.337213 20.897621 41.506489 31.229969 -37.259140 -26.255663 -0.273907 -0.979240 -3.110001 2.355304 -0.104928 6.028841 0.800559 -0.016413 -4.134209 -0.866692 -0.097540 -1.342731 -2.080799 -0.063481 -5.341048 9.445407 1.546280 33.364178 6.460361 4.709622 0.003020 -7.352976 -3.884847 1.013523 -57.969744 -1.860590 34.778838 0.498904 2.856418 -9.933313 1.900595 -4.114534 -10.085677 -0.551329 1.860053 -0.000000 0.000000 0.000000 0.000000 0.000000 0.000000 0.000000 8.565757 3.765913 2.976111 56.847132 -4.400866 33.449515 -1.113276 -1.491752 -10.548758 -2.726852 2.091725 -10.659122 0.935781 -0.942821 -0.000000 0.000000 0.000000 0.000000 0.000000 0.000000 0.000000
20.026180 19.073123 35.513389 -2.617169 -3.536890 11.240652 -16.483857 1.928495 3.536277 6.559345 -4.699927 -27.293046 -9.195038 -21.845647 30.812316 -24.191778 47.317210 -11.836580 -0.119231 -2.016193 0.964347 13.010895 -1.847602 3.935914 -6.616390 5.384891 -30.778169 14.985147 19.727341 39.123812 30.811529 -35.666136 -23.490877 -0.244498 -0.876605 -3.508147 2.317862 -0.056882 6.127196 0.796224 0.031435 -4.127845 -0.952477 -0.051406 -1.297520 -2.055897 0.087165 -5.384094 9.829856 1.406173 33.649648 5.598944 4.864278 -0.772730 -7.279014 -3.792690 0.958966 -58.552252 -2.319193 35.213983 0.501751 2.975256 -9.875697 1.714184 -4.177488 -10.018648 -0.469815 1.888441 -0.000000 0.000000 0.000000 0.000000 0.000000 0.000000 0.000000 8.381897 3.570735 3.079232 57.111292 -4.507194 33.513498 -1.089083 -1.750630 -11.063254 -2.822330 1.995500 -11.168987 0.965096 -0.928199 -0.000000 0.000000 0.000000 0.000000 0.000000 0.000000 0.000000
19.991153 19.067135 35.559511 -2.498185 -3.528481 11.461085 -16.289860 1.658675 3.532691 7.210621 -6.027091 -27.329248 -10.361139 -21.198264 31.827326 -24.145833 48.098549 -13.663681 -0.086244 -1.884816 1.079164 13.030200 -1.742980 3.806353 -6.478010 5.180055 -31.166759 13.198313 19.267750 37.815583 31.305923 -34.324286 -21.092843 -0.253526 -0.903785 -3.135622 2.221865 0.013455 6.249079 0.787749 0.108470 -4.120664 -1.105251 0.024008 -1.280804 -2.022607 0.180965 -5.421137 10.171699 1.481078 33.884287 5.378372 5.117246 -1.123502 -7.295212 -3.771905 0.927910 -59.201720 -2.725999 36.176144 0.642641 3.083429 -10.122030 1.647465 -4.231398 -10.270834 -0.414987 1.913228 -0.000000 0.000000 0.000000 0.000000 0.000000 0.000000 0.000000 8.213713 3.531393 3.145128 57.653727 -4.885011 33.847715 -1.237059 -2.076622 -11.858507 -3.088687 1.710259 -11.959159 1.051328 -0.845696 -0.000000 0.000000 0.000000 0.000000 0.000000 0.000000 0.000000
